<svg width="95" height="32" viewBox="0 0 119 40" xmlns="http://www.w3.org/2000/svg"><g fill="none" fill-rule="evenodd"><path d="M26.43 10.067H.89a.853.853 0 0 0-.853.852v18.993c0 .47.382.852.853.852h25.54a.853.853 0 0 0 .85-.852V10.919c0-.47-.38-.851-.85-.852" fill="#006CB5" fill-rule="nonzero"/><path d="M24.378 20.354H10.66a2.397 2.397 0 1 0-4.625-1.252 2.4 2.4 0 1 0 0 4.592 2.397 2.397 0 1 0 4.625-1.253h9.315v2.879h1.114v-1.44h1.075v1.437h1.112v-2.876h1.111l-.01-2.087zm-16.014-1.76a1.068 1.068 0 1 1 0 2.136 1.068 1.068 0 0 1 0-2.135zm-4.097 2.802a1.068 1.068 0 1 1 2.135 0 1.068 1.068 0 0 1-2.135 0zm4.097 2.802a1.068 1.068 0 1 1 0-2.136 1.068 1.068 0 0 1 0 2.136z" fill="#FFE512"/><path d="M45.695 17.353c-2.53 0-4.63 1.823-4.632 4.481-.003 2.659 2.1 4.482 4.632 4.482a4.848 4.848 0 0 0 2.636-.756v.756h1.997v-4.482c0-2.64-2.1-4.481-4.63-4.481m.023 7.12h-.046a2.64 2.64 0 0 1 0-5.282h.046a2.64 2.64 0 1 1 0 5.281m9.875-7.045c-.746 0-1.478.203-2.118.586v-.648h-2.036v8.964h2.036v-4.764a2.117 2.117 0 1 1 4.234 0v4.748h2.036v-4.748a4.156 4.156 0 0 0-4.152-4.138m-19.691-3.176c2.32 0 3.685 1.365 3.685 3.258a2.692 2.692 0 0 1-1.793 2.61 2.896 2.896 0 0 1 2.167 2.883c0 1.944-1.5 3.342-3.754 3.342h-4.467V14.251h4.162zm-.274 5.122c1.193 0 1.91-.681 1.91-1.688 0-1.006-.717-1.687-1.961-1.687h-1.808v3.378l1.859-.003zm.223 5.225c1.229 0 2.03-.666 2.03-1.74 0-1.072-.699-1.774-1.961-1.774h-2.149v3.514h2.08zm81.477.857a.932.932 0 1 1-.93-.906.912.912 0 0 1 .93.906zm-1.631 0a.702.702 0 0 0 1.205.512c.13-.136.2-.318.193-.506a.7.7 0 0 0-1.398 0v-.006zm.558.477h-.21v-.907c.115-.02.232-.03.348-.028a.57.57 0 0 1 .318.067c.057.05.09.123.087.2a.233.233 0 0 1-.19.21c.094.034.16.12.167.22a.68.68 0 0 0 .067.228h-.228a.853.853 0 0 1-.072-.223c-.015-.1-.072-.144-.19-.144h-.087l-.01.377zm0-.512h.1c.118 0 .212-.039.212-.134 0-.094-.061-.138-.194-.138a.553.553 0 0 0-.118 0v.272zm-39.941-8.014c-2.497 0-4.569 1.793-4.571 4.423-.003 2.63 2.074 4.423 4.571 4.423s4.571-1.793 4.574-4.423c.003-2.63-2.07-4.423-4.574-4.423zm.023 7.028h-.046a2.607 2.607 0 0 1 0-5.212h.046a2.607 2.607 0 0 1 0 5.212zm-6.523-1.557a4.115 4.115 0 1 1-.025-5.302l1.431-1.255a6.146 6.146 0 0 0-4.635-2.092 6.018 6.018 0 0 0 0 12.037 6.146 6.146 0 0 0 4.656-2.118l-1.427-1.27zm26.293-5.481c-2.501 0-4.578 1.818-4.578 4.428v8.036h1.974v-4.353a4.794 4.794 0 0 0 2.605.745c2.502 0 4.576-1.793 4.579-4.43.002-2.638-2.077-4.426-4.58-4.426zm.024 7.038h-.046a2.61 2.61 0 1 1 0-5.22h.046a2.61 2.61 0 1 1 0 5.22zm-9.919-7.038c-2.502 0-4.579 1.818-4.579 4.428v8.036h1.975v-4.353a4.794 4.794 0 0 0 2.604.745c2.502 0 4.577-1.793 4.58-4.43.002-2.638-2.078-4.426-4.58-4.426zm.023 7.038h-.046a2.61 2.61 0 0 1 0-5.22h.046a2.61 2.61 0 0 1 0 5.22zm19.187-7.038c-2.318 0-4.238 1.793-4.24 4.428-.003 2.635 1.922 4.43 4.24 4.43 1.396 0 2.866-.435 3.642-1.536l-1.16-1.145a2.884 2.884 0 0 1-2.239.95c-1.52 0-2.54-.896-2.54-2.169h6.512c.018-.169.029-.343.029-.512-.005-2.646-1.652-4.446-4.244-4.446zm-2.261 3.55c0-.784 1.024-1.857 2.384-1.857.896 0 2.09.681 2.09 1.857h-4.474zm9.216.878v-7.47h-1.974v7.462c0 2.6 2.031 4.39 4.5 4.428v-1.82a2.538 2.538 0 0 1-2.525-2.6z" fill="#006CB5" fill-rule="nonzero"/></g></svg>