<svg xmlns="http://www.w3.org/2000/svg" width="98" height="32" viewBox="0 0 122.829 40"><title>img</title><g transform="matrix(.68957 0 0 .68957 -1.5692 10)"><title>Layer 1</title><g fill="#002856"><path d="M33.17 10.48c10.25 1.11 9.12 11.74 5.12 18.21h-7.2c7-13.05-.26-18.19-5.29-18.21h7.37m-8.6 0c10.24 1.11 9.12 11.74 5.08 18.21h-7.2c7-13.05 0-18.05-5.15-18.21h7.26m-8.62 0c10.25 1.11 9.13 11.74 5.11 18.24h-7.2c7-13.08-.15-17.64-4.42-18.24h6.52m-5.66 7.9C0 17.28 1.18 6.5 5.2 0h7.2c-6.46 11.52-1.32 17.56 4.31 18.28l-6.42.1zM63.78 11.99a4.33 4.33 0 0 1 0 2.79 5.76 5.76 0 0 1-1.58 2.69 6 6 0 0 1-1.6 1 2.6 2.6 0 0 1 1.53 1.62 4.62 4.62 0 0 1-.1 2.68 7.47 7.47 0 0 1-1.61 2.91 7.64 7.64 0 0 1-1.65 1.44 6.31 6.31 0 0 1-2.22.91 12.38 12.38 0 0 1-2.55.25h-7.82L51.42 10h8.38q3.2.09 3.98 1.99zM52 20.28l-1.39 4.87h4.24a4.54 4.54 0 0 0 1.85-.32 3.33 3.33 0 0 0 1.81-2.28 1.52 1.52 0 0 0-.56-2 3.64 3.64 0 0 0-1.69-.27H52zm2-7.06l-1.15 4h4.24a4.1 4.1 0 0 0 2-.45 2.49 2.49 0 0 0 1.17-1.6 1.28 1.28 0 0 0-.45-1.69 5.64 5.64 0 0 0-2-.29H54v.03zM70.5 20.12a6 6 0 0 0 1.42-.31 1.56 1.56 0 0 0 1-1 1 1 0 0 0-.22-1.15 2.72 2.72 0 0 0-1.51-.32 2.63 2.63 0 0 0-1.86.62 3.93 3.93 0 0 0-.82 1.24H65.3a7.51 7.51 0 0 1 1.77-2.92 6.94 6.94 0 0 1 5.06-1.78 6.34 6.34 0 0 1 3.47.89q1.4.89.68 3.32l-1.79 6.2q-.19.64-.42 1.56a2 2 0 0 0-.07.94.79.79 0 0 0 .37.41l-.14.52H70.6a3.79 3.79 0 0 1 0-.77q0-.36.14-.82a10.65 10.65 0 0 1-2 1.35 5.66 5.66 0 0 1-2.63.65 3.07 3.07 0 0 1-2.56-1.05 3.2 3.2 0 0 1-.28-3 5.62 5.62 0 0 1 2.85-3.61 9.61 9.61 0 0 1 3.21-.81l1.17-.16zm.39 1.81a4.66 4.66 0 0 1-.73.34 6.3 6.3 0 0 1-1 .24l-.79.15a6 6 0 0 0-1.66.48 2.34 2.34 0 0 0-1.2 1.5 1.36 1.36 0 0 0 .09 1.31 1.32 1.32 0 0 0 1 .41 3.92 3.92 0 0 0 3.83-3.11l.46-1.32zM90.58 19.28L88 28.38h-3.45l2.35-8.22a3.66 3.66 0 0 0 .2-1.64 1.35 1.35 0 0 0-1.57-1 3.24 3.24 0 0 0-2.76 1.52 6.84 6.84 0 0 0-.92 2.06l-2.09 7.32h-3.33l3.87-13.56h3.22l-.57 2a9 9 0 0 1 1.65-1.5 5.11 5.11 0 0 1 2.85-.81 3.65 3.65 0 0 1 2.92 1.1q.94 1.08.21 3.63zM101.08 19.73a2.72 2.72 0 0 0-.09-1.37 1.44 1.44 0 0 0-1.51-.82 3.27 3.27 0 0 0-2.81 1.74 9.8 9.8 0 0 0-1 2.5 7.37 7.37 0 0 0-.36 2.39A1.59 1.59 0 0 0 97 25.9a2.53 2.53 0 0 0 1.85-.67A4.77 4.77 0 0 0 100 23.5h3.41a8.42 8.42 0 0 1-2 3 7.12 7.12 0 0 1-5.32 2.31q-3.08 0-4-1.94a7.22 7.22 0 0 1 0-5 11.13 11.13 0 0 1 3.15-5.42 7.24 7.24 0 0 1 5-1.93 5.06 5.06 0 0 1 3.6 1.15q1.2 1.14.65 4h-3.42l.01.06zM111.6 20.2a6.07 6.07 0 0 0 1.42-.31 1.55 1.55 0 0 0 1-1 1 1 0 0 0-.22-1.15 2.72 2.72 0 0 0-1.51-.32 2.63 2.63 0 0 0-1.86.62 4 4 0 0 0-.82 1.24h-3.21a7.5 7.5 0 0 1 1.77-2.91 6.94 6.94 0 0 1 5.06-1.78 6.34 6.34 0 0 1 3.47.89q1.38.88.67 3.33l-1.79 6.2q-.19.64-.42 1.56a2 2 0 0 0-.08.94.78.78 0 0 0 .37.41l-.14.52h-3.61a3.77 3.77 0 0 1 0-.77c0-.24.08-.51.14-.82a10.75 10.75 0 0 1-2 1.35 5.68 5.68 0 0 1-2.63.65 3.07 3.07 0 0 1-2.56-1.05 3.2 3.2 0 0 1-.28-3 5.61 5.61 0 0 1 2.85-3.6 9.62 9.62 0 0 1 3.18-.86l1.2-.14zm.36 1.79a4.69 4.69 0 0 1-.73.34 6.32 6.32 0 0 1-1 .24l-.79.15a6 6 0 0 0-1.66.48 2.35 2.35 0 0 0-1.19 1.5 1.36 1.36 0 0 0 .09 1.31 1.31 1.31 0 0 0 1 .4 3.92 3.92 0 0 0 3.83-3.11l.45-1.31zM141 10.19h5.18L141 28.48h-3.36l3.54-12.36.45-1.49q.29-1 .43-1.48l-7.66 15.33h-3.5l1.1-15.37-.4 1.48q-.26 1-.43 1.49l-3.54 12.36h-3.33l5.24-18.28h5.24l-1 14.38L141 10.19zM147.91 14.97h3.38l-3.87 13.52H144l3.91-13.52zm-.06 11.91h-3.38l.94-3.26h3.38l-.94 3.26zM161.83 10.12L161 13q-.27 0-.92-.06a1.35 1.35 0 0 0-1 .31 1.53 1.53 0 0 0-.46.72l-.33 1.14h2.19l-.72 2.49h-2.19l-3.12 10.9h-3.33l3.12-10.9h-1.86l.72-2.49h1.83l.25-.87a6.31 6.31 0 0 1 1.55-3q1.08-1.21 3.85-1.21h.57l.68.09zM171.72 17.28a5.86 5.86 0 0 1 .17 2.79 19.18 19.18 0 0 1-.65 2.68h-8.73q-.51 2 .39 2.85a2.12 2.12 0 0 0 1.51.51 3 3 0 0 0 1.86-.62 4.83 4.83 0 0 0 .89-.93h3.41a6.69 6.69 0 0 1-1.89 2.44 7.48 7.48 0 0 1-5.16 2 4.71 4.71 0 0 1-3.83-1.72q-1.38-1.67-.31-5.41a10.65 10.65 0 0 1 3.22-5.38 7.39 7.39 0 0 1 4.9-1.86 5.32 5.32 0 0 1 2.69.64 3.38 3.38 0 0 1 1.53 2.01zm-8.46 3.12h5.19a2.62 2.62 0 0 0-.2-2.13 1.82 1.82 0 0 0-1.58-.73 2.91 2.91 0 0 0-2 .77 5.55 5.55 0 0 0-1.42 2.1l.01-.01zM175.16 28.55h-3.34l5.24-18.27h3.34l-5.24 18.27z"></path></g></g></svg>
