<svg width="98" height="32" viewBox="0 0 123 40" xmlns="http://www.w3.org/2000/svg"><g fill="#EB0029" fill-rule="evenodd"><path d="M23.467 15.779a2.007 2.007 0 0 0-.623-.81 5.745 5.745 0 0 0-1.457-.808 16.346 16.346 0 0 0-4.28-1.085c-.923-.105-1.805-.178-2.703-.267a28.241 28.241 0 0 0-3.755.057 25.43 25.43 0 0 0-2.97.437 13.943 13.943 0 0 0-3.236.995 4.575 4.575 0 0 0-1.408.939 1.31 1.31 0 0 0 0 1.982c.243.244.515.459.809.64A9.338 9.338 0 0 0 6.36 18.87c.928.248 1.872.432 2.825.55l1.108.122 1.813-5.665c.097 1.902.194 3.812.3 5.721h.355c.745 0 1.481 0 2.217-.064a23.79 23.79 0 0 0 3.375-.405 14.566 14.566 0 0 0 3.188-.939 4.604 4.604 0 0 0 1.619-1.06c.357-.352.477-.88.307-1.351zm-13.57 4.014a24.794 24.794 0 0 0-3.893.38 14.97 14.97 0 0 0-3.576 1.076 5.43 5.43 0 0 0-1.902 1.327 1.764 1.764 0 0 0-.437 1.797 2.824 2.824 0 0 0 1.084 1.335 9.274 9.274 0 0 0 2.76 1.303c1.031.31 2.087.536 3.156.671l.501.057 2.55-7.93-.243-.016zm9.475 1.917a11.329 11.329 0 0 0-3.026-1.238 21.46 21.46 0 0 0-3.123-.55l-.81-.065c.138 2.647.267 5.276.405 7.915.07.005.14.005.21 0 .648-.09 1.295-.162 1.942-.276a14.7 14.7 0 0 0 3.375-.979 5.923 5.923 0 0 0 2.055-1.351 1.788 1.788 0 0 0 .21-2.387 3.99 3.99 0 0 0-1.238-1.068z"/><path d="M38.179 21.136a1.618 1.618 0 0 0 1.278-1.618v-1.239c0-1.327-.81-2.006-2.306-2.006h-8.513V26.29h7.898c1.982 0 2.994-.68 2.994-2.023v-1.255a1.772 1.772 0 0 0-1.351-1.877zm-7.09.898h5.107c.254-.021.509.018.744.114a.72.72 0 0 1 .26.655v.744a.72.72 0 0 1-.251.656c-.236.098-.49.14-.745.121H31.09v-2.29zm6.054-2.427c0 .145 0 .598-.947.598H31.09v-2.128h5.106c.947 0 .947.453.947.599v.93zm11.677-3.334h-2.323L40.833 26.29h2.516l1.158-2.153H50.6l1.19 2.153h2.807l-5.745-9.962-.032-.056zm.704 5.899h-3.95l2.008-3.698 1.942 3.698zm16.086-.64c0 .195 0 .672.074 1.409a15.392 15.392 0 0 0-.931-.858l-6.903-5.786h-1.699v9.994h2.258V20.9c0-.34 0-.76-.065-1.262.196.206.404.4.623.583l7.21 6.069h1.7V16.273H65.61v5.26zm14.89-5.259h-7.226a2.937 2.937 0 0 0-1.99.501 2.565 2.565 0 0 0-.55 1.918v5.171a2.56 2.56 0 0 0 .55 1.894 2.94 2.94 0 0 0 1.99.501H80.5c.703.078 1.41-.1 1.99-.501a2.56 2.56 0 0 0 .551-1.918V18.7a2.565 2.565 0 0 0-.55-1.918 2.937 2.937 0 0 0-1.99-.51zm.049 1.958v6.012h-7.324v-6.012h7.324zm13.943 4.353c1.537 0 2.314-.671 2.314-2.006v-2.299c0-1.327-.81-2.006-2.314-2.006h-8.513V26.29h2.427v-3.707h2.023l3.925 3.682h3.6l-4.53-3.706 1.068.024zM88.43 18.15h5.033c.233-.02.469.013.688.097.177.138.267.36.234.583v1.197a.623.623 0 0 1-.234.583c-.221.088-.46.124-.696.105h-5.034l.009-2.565zm10.261.08h4.508v8.06h2.492v-8.06h4.523v-1.957H98.691zm15.982 6.013v-2.225h4.653v-1.885h-4.653v-1.975h7.574v-1.885h-10.066V26.29h10.164v-2.048z" fill-rule="nonzero"/></g></svg>