<svg width="68" height="32" viewBox="0 0 86 40" xmlns="http://www.w3.org/2000/svg"><path d="M9.217 20.067a2.266 2.266 0 0 0 1.323-2.153c0-1.068-.513-1.878-1.538-2.477-.454-.254-1.236-.367-2.348-.367H1.176v11.136h5.157c1.765 0 2.978-.184 3.874-1.197a3.32 3.32 0 0 0 .826-2.27 2.74 2.74 0 0 0-1.816-2.672zM4.42 17.6h1.565c.896 0 1.323.227 1.323.885 0 .657-.411.927-1.311.927H4.432L4.42 17.6zm1.878 6.022H4.42v-2.109h1.85c.956 0 1.425.329 1.425 1.053s-.465 1.06-1.389 1.06l-.008-.004zm62.938 2.58h3.588V15.07h-3.58l-.008 11.132zM52.8 22.206h3.56v-3.13H52.8v-.857h5.294v-3.13H49.21v11.136h8.886v-3.13h-5.294v-.889zm26.69-7.137c-3.423 0-6.198 2.492-6.198 5.568 0 3.075 2.775 5.568 6.199 5.568s6.198-2.493 6.198-5.568c0-3.076-2.778-5.568-6.198-5.568zm0 7.994c-1.49 0-2.7-1.088-2.7-2.426s1.21-2.426 2.7-2.426c1.492 0 2.705 1.088 2.705 2.426s-1.213 2.426-2.704 2.426zm-48.47-2.23l-3.99-5.763h-3.59v11.136h3.589v-5.764l3.987 5.764h3.588V15.07h-3.588l.004 5.763zM14.856 15.07L10.36 26.206h3.8l1.01-3.076h3.36l.92 3.076h3.713L19 15.07h-4.144zm1.327 4.977l.747-2.277.68 2.277h-1.427zm41.87.59c0 3.076 2.774 5.57 6.197 5.57h4.547v-6.653H63.91v2.641h1.788v.857h-1.463c-1.491 0-2.7-1.088-2.7-2.426s1.209-2.426 2.7-2.426h4.547v-3.13h-4.547c-3.424 0-6.198 2.492-6.198 5.568h.015zm-13.25.45a.458.458 0 0 1 .207-.422c1.518-.806 2.688-2.633 2.688-4.304 0-2.911-2.774-5.271-6.198-5.271h-6.43v15.104h4.04V14.66h2.374a2.13 2.13 0 0 1 2.235 2.007c0 1.107-1.018 1.8-2.235 2.004a2.02 2.02 0 0 0-1.71 1.956c.006.547.193 1.077.533 1.507l5.43 6.77h5.182l-6.026-7.51a.528.528 0 0 1-.106-.305h.016z" fill="#A8005B"/></svg>