<svg xmlns="http://www.w3.org/2000/svg" width="75" height="32" viewBox="0 0 170 50"><defs><clipPath id="a"><path d="M1.305 1.414h27.547v26.887H1.305zm0 0"/></clipPath><clipPath id="b"><path d="M30.258 1.059h17.48V29h-17.48zm0 0"/></clipPath></defs><g clip-path="url(#a)"><path d="M21.445 15.906c-.02 0 0 9.547 0 9.547 0 1.2-1.023 2.25-2.37 2.25h-1.282v.488H28.68v-.488h-1.285c-1.325 0-2.372-1.066-2.372-2.25V4.191c0-1.164 1.028-2.25 2.372-2.25h1.285v-.488H17.793v.488h1.281c1.36 0 2.371 1.086 2.371 2.25V14.56H8.543V4.19c0-1.164 1.039-2.25 2.367-2.25h1.29v-.488H1.304v.488h1.289c1.344 0 2.367 1.086 2.367 2.25v21.262c0 1.184-1.024 2.25-2.367 2.25h-1.29v.488H12.2v-.488h-1.29c-1.328 0-2.367-1.066-2.367-2.25 0 0 .016-9.547 0-9.547zm0 0" fill="#1a1818"/></g><g clip-path="url(#b)"><path d="M47.348 21.195c.09 1.57-.88 3.957-2.227 5.176-1.289 1.172-3.129 2.192-5.594 2.192-2.793 0-5.199-1.5-6.074-1.836-.531-.207-1.23-.184-1.644.074-.485.3-.782.789-.895 1.691h-.41v-9.265h.41c.375 2.847 1.695 4.523 2.52 5.472 1.343 1.559 3.879 2.442 6.32 2.047 1.941-.316 4.062-2.433 3.832-5.055-.082-.945-.293-2.324-2.242-3.609-1.23-.809-2.977-1.95-4.625-3.055-2.09-1.39-3.985-2.898-4.516-3.507-.7-.797-1.566-1.946-1.566-3.79 0-1.57.593-3.37 1.863-4.574 1.27-1.199 2.984-2.097 5.445-2.097 2.461 0 4.328 1.312 4.961 1.609.633.3 1.336.23 1.735 0 .39-.227.652-.563.761-1.461h.414v8.777h-.414c-.37-2.855-1.597-4.988-2.457-5.777-.86-.785-2.539-1.875-5.035-1.387-2.398.465-3.566 1.555-3.785 3.485-.168 1.472.621 2.379 1.078 2.925.938 1.125 6.848 4.5 9.527 6.829 1.383 1.199 2.465 2.625 2.618 5.136" fill="#1a1818"/></g><path d="M56.012 26.68c1.843.574 5.351 1.011 7.793-.746 2.93-2.114 3.55-7.27-.586-9.957-1.668-1.079-5.824-1.008-7.207-.68zm0-12.887c1.304.332 5.148.422 6.64-.527 2.336-1.493 3.145-3.883 2.715-6.004-.258-1.27-.93-2.442-2.082-3.258-2.277-1.613-5.555-1.352-7.273-.828zm8.578.746c4.742 1.637 6.09 5 5.215 8.465-1.035 4.078-5.602 4.906-7.086 5.101-.672.09-2.38.082-4.067.082-3.011.004-6.824-.007-9.882-.007v-.489h1.566c.996 0 2.133-.843 2.133-2.117V4.227c0-1.274-1.137-2.137-2.125-2.137h-1.57v-.485c2.703 0 6.644-.003 9.456 0 2.274 0 3.512.215 4.31.372 1.339.261 5.26 1.425 6.187 5.097.726 2.848-.688 6.434-4.137 7.465M94.73 1.922l.383 9.058-.543.016c-.257-2.289-1.117-3.902-2.195-4.95-.316-.304-.91-.913-1.762-1.452-1.418-.903-3.527-1.696-6.039-1.246-3.765.672-5.703 3.175-6.676 5.586-1.191 2.96-1.949 8.027.079 12.3 1.64 3.47 4.796 4.914 7.23 5.286 2.078.32 6.676.222 10.188-4.536l.554.375c-2.722 3.864-6.34 6.336-10.48 6.301-5.293-.047-8.625-2.984-10.14-4.723-1.606-1.84-2.837-5.328-2.852-8.367-.016-2.699.582-5.703 1.546-7.46 1.66-3.02 5.125-6.02 9.692-6.47 3.422-.335 5.672.337 7.594 1.442.957.555 1.5.621 2.023.395.52-.227.938-.676.938-1.555zm0 0" fill="#1a1818"/><path d="M143.734 28.188h-26.566V1.483h26.566zm0 0" fill="#fff"/><path d="M103.879 14.836l13.289 13.355V1.477zm13.289 13.355h26.57L130.45 14.836zm13.282-13.355l13.288-13.36h-26.57zm13.288-13.359V28.19l13.282-13.355zm0 0" fill="#e71d1c"/></svg>