<svg width="84" height="32" viewBox="0 0 105 40" xmlns="http://www.w3.org/2000/svg"><g fill="#11284A" fill-rule="evenodd"><path d="M14.5 13.74a5.742 5.742 0 0 0-5.757 5.76 5.5 5.5 0 0 0 1.682 4.077 5.662 5.662 0 0 0 8.154 0A5.499 5.499 0 0 0 20.26 19.5a5.742 5.742 0 0 0-5.761-5.76z"/><path d="M14.5 12.721V6.148A13.475 13.475 0 0 0 7.925 7.88v9.989a6.465 6.465 0 0 1 2.344-3.613 6.547 6.547 0 0 1 4.231-1.521v-.014zm-1.424 13.506a6.237 6.237 0 0 1-3.67-2.394A6.275 6.275 0 0 1 7.93 19.65H1.15c0 2.31.615 4.58 1.784 6.573l10.142.004zm8.052-4.995a6.482 6.482 0 0 1-2.344 3.67 6.685 6.685 0 0 1-4.23 1.477v6.465a12.95 12.95 0 0 0 6.574-1.732v-9.887.007zm6.726-1.783c0-2.312-.615-4.581-1.784-6.575h-9.887a6.408 6.408 0 0 1 3.67 2.344 6.499 6.499 0 0 1 1.477 4.23h6.524zm3.059-6.218v7.746h2.342v-7.746h-2.342zm14.626 0h-2.396v5.607l-4.535-5.607h-3.67v7.746h2.396v-5.656l4.484 5.656h3.72v-7.746zm3.924 3.058v-1.223h4.229c.458 0 .713.203.713.612s-.255.612-.713.612l-4.229-.001zm0 1.58h4.28c.561 0 .867.254.867.661 0 .407-.306.57-.867.57h-4.28v-1.232zm6.166-.816v-.051c.317-.054.606-.216.816-.459.255-.254.356-.713.356-1.33a1.875 1.875 0 0 0-.713-1.58c-.459-.307-1.172-.408-2.141-.408h-6.88v7.747h7.644c.76 0 1.331-.103 1.68-.358.41-.357.664-.916.664-1.683 0-.61-.102-1.068-.306-1.33a1.591 1.591 0 0 0-1.122-.561l.002.013zm12.588-3.828h-2.345v4.484a1.73 1.73 0 0 1-.304 1.019c-.203.255-.612.357-1.07.357H62.15c-.51 0-.816-.102-1.07-.357-.206-.203-.255-.56-.255-1.02v-4.483h-2.403v5.001c0 .967.253 1.68.76 2.14.51.509 1.331.712 2.396.712h3.466c1.07 0 1.886-.203 2.396-.713.507-.457.76-1.17.76-2.139v-5h.016zm3.923 3.778v-1.876h3.775c.64 0 1.071.108 1.071.815v.255c0 .561-.306.816-.867.816l-3.98-.01zm0 1.987h3.775c.358 0 .613.052.761.204.148.152.204.458.204.867v.916h2.395v-1.33c0-.56-.1-1.02-.357-1.275a1.945 1.945 0 0 0-.917-.458 1.63 1.63 0 0 0 1.07-.661c.184-.4.271-.836.256-1.274v-.459c0-.76-.153-1.32-.459-1.68-.408-.459-1.019-.613-1.886-.613h-7.237v7.747h2.394V18.99zm13.811-2.854l-2.396-.102a.43.43 0 0 1-.357-.204.595.595 0 0 1-.103-.357c0-.408.306-.612.919-.61h2.648c.51 0 .867.05 1.02.152.102.102.153.306.153.661h2.394v-.255c0-.815-.152-1.376-.51-1.68-.408-.459-1.273-.664-2.498-.664h-3.36c-1.376 0-2.293.255-2.701.713-.307.358-.459.968-.459 1.784a3.75 3.75 0 0 0 .152 1.222c.072.295.255.55.51.713.51.306 1.58.458 3.364.458l2.852.103a.458.458 0 0 1 .409.204l.1.408a.586.586 0 0 1-.306.561l-.713.103h-2.953l-.76-.154c-.152-.1-.255-.356-.255-.76h-2.396v.56c0 .816.255 1.377.713 1.681.407.255 1.223.409 2.345.409h2.903c1.58 0 2.65-.152 3.109-.458.292-.145.513-.402.612-.713a4.35 4.35 0 0 0 .154-1.274c0-.612-.051-1.02-.203-1.331a1.238 1.238 0 0 0-.662-.76c-.56-.307-1.784-.408-3.72-.408l-.005-.002zm12.536-2.905h-3.109l-4.228 7.746h2.7l.663-1.374.917-1.683 1.528-2.904 1.53 2.904H95.43l-.917 1.683h4.89l.716 1.374h2.65l-4.282-7.746zM50.454 27.087v-.607h2.196v1.92c-.314.255-.666.46-1.044.606a3.097 3.097 0 0 1-1.103.204 2.938 2.938 0 0 1-1.388-.327 2.162 2.162 0 0 1-.95-.951 2.974 2.974 0 0 1-.32-1.382 3.202 3.202 0 0 1 .318-1.413c.188-.416.508-.759.91-.976a2.852 2.852 0 0 1 1.37-.317c.347-.003.692.062 1.015.19.278.102.524.277.713.506.189.252.323.54.393.848l-.62.169a1.934 1.934 0 0 0-.289-.622 1.179 1.179 0 0 0-.496-.363 1.822 1.822 0 0 0-.713-.137 2.105 2.105 0 0 0-.814.145c-.21.083-.4.213-.553.38a1.784 1.784 0 0 0-.327.513 2.71 2.71 0 0 0-.19 1.042c-.013.4.069.798.24 1.16.149.301.393.545.695.692.3.151.632.23.968.228a2.3 2.3 0 0 0 .871-.173 2.2 2.2 0 0 0 .64-.365v-.97h-1.522zm3.116 2.034v-3.755h.57v.57c.096-.203.234-.382.406-.526a.71.71 0 0 1 .408-.13c.233.006.46.077.654.206l-.218.591a.894.894 0 0 0-.466-.139.614.614 0 0 0-.38.126.686.686 0 0 0-.236.35c-.073.24-.11.49-.107.741v1.966h-.63zm4.881 0v-.551a1.375 1.375 0 0 1-1.192.635 1.521 1.521 0 0 1-.62-.126 1.023 1.023 0 0 1-.428-.32 1.19 1.19 0 0 1-.19-.47 3.335 3.335 0 0 1-.038-.596v-2.327h.635v2.082c-.007.224.006.449.038.671a.671.671 0 0 0 .255.396.79.79 0 0 0 .481.142c.19 0 .375-.05.538-.146.16-.09.284-.23.354-.4.08-.236.116-.484.104-.733v-2.012h.637v3.755h-.574zm1.567 1.438v-5.193h.57v.487c.121-.176.28-.323.464-.43.193-.101.408-.151.626-.145.3-.005.597.081.848.248.25.172.444.416.555.7.129.313.193.65.19.988a2.5 2.5 0 0 1-.207 1.038 1.569 1.569 0 0 1-1.43.95 1.194 1.194 0 0 1-.57-.132 1.291 1.291 0 0 1-.415-.339v1.828h-.631zm.57-3.296c0 .483.098.84.293 1.073a.903.903 0 0 0 .711.346.916.916 0 0 0 .727-.36c.201-.239.302-.61.302-1.11 0-.479-.099-.837-.295-1.076a.894.894 0 0 0-.705-.358.916.916 0 0 0-.72.38 1.7 1.7 0 0 0-.315 1.105h.002zm3.219-.02c0-.695.194-1.21.58-1.544.33-.28.75-.428 1.181-.417a1.68 1.68 0 0 1 1.266.508c.345.383.521.887.49 1.401.02.392-.054.783-.216 1.141a1.546 1.546 0 0 1-.633.647c-.278.152-.59.23-.907.228-.477.02-.94-.165-1.274-.506-.324-.337-.487-.823-.487-1.457v-.001zm.654 0c0 .482.105.84.316 1.08a1.048 1.048 0 0 0 1.58 0c.21-.241.314-.608.314-1.1a1.552 1.552 0 0 0-.316-1.057 1.048 1.048 0 0 0-1.578 0c-.211.238-.316.597-.316 1.077zm5.739 1.878v-5.183h3.497v.612h-2.81v1.605h2.431v.612h-2.432v2.354H70.2zm4.308-4.451v-.732h.647v.732h-.647zm0 4.451v-3.755h.647v3.755h-.647zm1.607 0v-3.755h.57v.534a1.35 1.35 0 0 1 1.195-.62c.214-.002.426.04.623.122.17.065.317.177.426.321.096.141.16.3.19.468.029.205.04.413.035.62v2.31h-.637V26.84a1.734 1.734 0 0 0-.075-.581.61.61 0 0 0-.262-.307.837.837 0 0 0-.443-.116 1.04 1.04 0 0 0-.703.26c-.19.172-.295.497-.295.978v2.048h-.624zm6.478-.464a2.417 2.417 0 0 1-.68.424 1.977 1.977 0 0 1-.702.124 1.367 1.367 0 0 1-.95-.3 1.002 1.002 0 0 1-.332-.773c-.002-.176.041-.35.126-.503a1.03 1.03 0 0 1 .329-.366c.14-.094.295-.165.458-.209.188-.044.378-.076.57-.095a5.773 5.773 0 0 0 1.141-.22v-.166a.702.702 0 0 0-.19-.547 1.055 1.055 0 0 0-.724-.217 1.14 1.14 0 0 0-.664.158.966.966 0 0 0-.315.557l-.622-.086a1.55 1.55 0 0 1 .277-.644c.15-.179.348-.31.57-.38a2.5 2.5 0 0 1 .853-.134c.265-.008.53.03.781.112.17.056.322.154.443.286.097.127.162.276.19.433a3.7 3.7 0 0 1 .03.588v.848c-.01.374.004.749.043 1.122.026.158.08.312.16.452h-.666a1.344 1.344 0 0 1-.128-.464h.002zm-.053-1.42c-.336.12-.685.2-1.04.241a2.43 2.43 0 0 0-.555.128.54.54 0 0 0-.251.207.532.532 0 0 0-.09.302.546.546 0 0 0 .19.424.833.833 0 0 0 .57.168c.23.004.455-.052.655-.162a.994.994 0 0 0 .422-.44c.08-.201.114-.418.103-.634v-.234h-.004zm1.63 1.884v-3.755h.57v.534a1.35 1.35 0 0 1 1.194-.62 1.6 1.6 0 0 1 .63.114.983.983 0 0 1 .425.322c.096.14.16.3.19.467.029.206.04.413.035.62v2.318h-.637V26.84a1.711 1.711 0 0 0-.074-.581.608.608 0 0 0-.263-.307.837.837 0 0 0-.443-.116 1.04 1.04 0 0 0-.702.26c-.19.172-.294.497-.294.978v2.048h-.631zm6.478-1.376l.625.081c-.046.39-.232.751-.525 1.014a1.521 1.521 0 0 1-1.038.365 1.609 1.609 0 0 1-1.245-.502c-.313-.336-.47-.818-.47-1.445a2.628 2.628 0 0 1 .202-1.065c.122-.29.338-.532.614-.685a1.82 1.82 0 0 1 .895-.228c.36-.015.713.094 1 .31.27.222.447.534.5.879l-.62.095a1.034 1.034 0 0 0-.311-.57.812.812 0 0 0-.544-.19.99.99 0 0 0-.781.343c-.2.23-.3.594-.3 1.092 0 .498.096.865.29 1.1a.95.95 0 0 0 .76.343.888.888 0 0 0 .626-.23 1.14 1.14 0 0 0 .32-.707h.002zm1.172-3.075v-.732h.638v.732h-.637zm0 4.451v-3.755h.638v3.755h-.637zm4.176-1.209l.658.082c-.083.354-.284.67-.57.895a1.738 1.738 0 0 1-1.076.318A1.711 1.711 0 0 1 93.7 28.7c-.322-.34-.483-.815-.483-1.424 0-.634.163-1.125.489-1.472a1.65 1.65 0 0 1 1.266-.523c.465-.015.914.172 1.23.514.32.34.48.823.48 1.443v.17h-2.81c-.004.35.12.688.35.952.202.216.487.336.783.329a.972.972 0 0 0 .597-.19c.185-.153.322-.357.391-.586l.002-.002zm-2.091-1.029h2.091a1.264 1.264 0 0 0-.24-.711.977.977 0 0 0-.788-.367 1.013 1.013 0 0 0-.738.293c-.205.21-.324.491-.331.785h.006zm3.542 2.238v-3.755h.57v.57c.095-.203.234-.383.405-.526a.705.705 0 0 1 .41-.13c.232.006.459.077.653.206l-.218.591a.894.894 0 0 0-.466-.139.614.614 0 0 0-.38.126.686.686 0 0 0-.238.35 2.48 2.48 0 0 0-.107.741v1.966h-.629zm2.181-1.878c0-.695.193-1.21.58-1.544.33-.282.753-.43 1.186-.419a1.68 1.68 0 0 1 1.267.508c.344.383.52.887.49 1.401.02.392-.055.783-.216 1.141-.142.274-.363.5-.634.647-.278.15-.59.225-.907.22-.477.02-.94-.164-1.274-.506-.324-.337-.486-.822-.486-1.456l-.006.008zm.654 0c0 .482.105.84.314 1.08a1.048 1.048 0 0 0 1.582 0c.209-.241.313-.608.313-1.1a1.552 1.552 0 0 0-.315-1.057 1.05 1.05 0 0 0-1.578 0c-.21.238-.314.597-.314 1.077h-.002z"/></g></svg>