<svg version="1.1" id="Layer_1" xmlns="http://www.w3.org/2000/svg" x="0" y="0" viewBox="0 0 413.2 224.6" style="enable-background:new 0 0 413.2 224.6" xml:space="preserve" height="32" width="58"><style>.st0{fill:#820ad1}</style><path class="st0" d="M2.4 92.5c-.5 10 0 20.2 0 30.2V219h54v-88.2c0-27.5-.2-51.9 0-56.9 1-23.8 7.5-39.4 19.7-52.1-.9 0-1.9-.1-2.8-.1-26.3 0-51 15.1-63 38.4C4.9 70.4 3 81.4 2.4 92.5z"/><path class="st0" d="M126.2.4C106 .4 88.8 8.3 75.9 21.8c40.2 0 66.3 27.4 67.7 71 .3 10 .4 63.6.4 63.6V219h54v-84.6c0-25.6.2-47.7-1.6-63-4.9-42.5-31-71-70.2-71zm284.6 131.7c.5-10 0-20.2 0-30.2V5.6h-54v88.2c0 27.5.2 51.9 0 56.9-1 23.8-7.5 39.4-19.7 52.1.9 0 1.9.1 2.8.1 26.3 0 51-15.1 63-38.4 5.4-10.3 7.3-21.2 7.9-32.4z"/><path class="st0" d="M287 224.2c20.2 0 37.4-7.9 50.3-21.4-40.2 0-66.3-27.4-67.7-71-.3-10-.5-34.8-.5-63.6V5.6l-54 .1v84.6c0 25.6-.2 47.7 1.6 63 5 42.5 31.1 70.9 70.3 70.9z"/></svg>