<svg width="71" height="32" viewBox="0 0 356 160" fill="none" xmlns="http://www.w3.org/2000/svg"><path d="M38.691 47.679c3.224-.012 6.192.303 8.907.92 2.714.619 5.053 1.649 7.028 3.079 1.975 1.43 3.514 3.332 4.617 5.731 1.114 2.387 1.672 5.344 1.672 8.87.012 3.526-.654 6.677-1.987 9.464-1.333 2.787-3.151 5.138-5.441 7.052-2.29 1.915-4.932 3.393-7.913 4.411-2.98 1.018-6.143 1.54-9.488 1.551l-17.364.037-4.75 22.926L0 111.744l13.087-64.017 25.604-.048zm-3.296 30.136c3.575-.012 6.398-.92 8.446-2.75s3.078-4.666 3.066-8.483c0-1.611-.29-2.944-.86-3.986-.57-1.043-1.333-1.854-2.29-2.412a9.91 9.91 0 00-3.175-1.2 17.75 17.75 0 00-3.623-.35l-11.997.023-3.89 19.207 14.323-.049zm27.665-5.659c1.37-1.939 3.03-3.502 4.98-4.69 1.964-1.187 4.157-2.047 6.593-2.556a37.769 37.769 0 017.573-.776c2.084 0 4.254.133 6.507.424 2.254.291 4.338.86 6.229 1.72 1.902.861 3.453 2.073 4.677 3.636 1.224 1.563 1.806 3.66 1.745 6.265 0 2.193-.315 4.774-.957 7.755l-4.047 18.54c-.23.836-.4 1.854-.485 3.078a45.702 45.702 0 00-.121 3.162c0 .764.145 1.661.448 2.666l-12.675.025-.012-4.545c-1.72 1.976-3.83 3.418-6.325 4.351a22.236 22.236 0 01-7.756 1.405c-2.496.012-4.69-.315-6.555-.957-1.878-.654-3.442-1.527-4.69-2.617-1.248-1.091-2.18-2.375-2.775-3.83a12.003 12.003 0 01-.896-4.58c-.013-4.46 1.514-8.022 4.568-10.7 3.054-2.678 7.38-4.35 12.978-5.016 2.969-.364 5.562-.643 7.767-.824 2.194-.182 4.023-.473 5.49-.86 1.454-.388 2.544-.958 3.247-1.697.715-.74 1.066-1.854 1.066-3.345 0-1.187-.278-2.132-.812-2.847a5.853 5.853 0 00-1.999-1.685 8.138 8.138 0 00-2.593-.836 16.843 16.843 0 00-2.63-.218c-2.253.012-4.277.558-6.058 1.66-1.782 1.103-2.872 2.824-3.284 5.138l-11.851.037c.4-2.92 1.284-5.344 2.654-7.283zm18.892 18.903c-1.842.218-3.684.376-5.538.497a26.96 26.96 0 00-3.478.582 10.2 10.2 0 00-2.993 1.211c-.86.534-1.563 1.273-2.096 2.194-.533.92-.8 2.096-.8 3.514 0 1.72.703 3.017 2.109 3.865 1.405.861 3.029 1.285 4.87 1.285 1.964-.012 3.612-.327 4.957-.945 1.333-.631 2.46-1.43 3.38-2.412a11.383 11.383 0 002.182-3.344c.533-1.248.97-2.496 1.333-3.745l1.248-4.459a12.58 12.58 0 01-5.174 1.757z" fill="#00609C"/><path d="M115.916 122.117c-1.127 1.272-2.375 2.278-3.732 2.993-1.357.715-2.92 1.211-4.677 1.478-1.758.266-3.817.412-6.193.412-1.066 0-2.169-.049-3.295-.17a78.422 78.422 0 00-3.381-.254l2.12-10.555c.836 0 1.672.085 2.533.267.86.182 1.708.267 2.545.267 1.478-.013 2.677-.231 3.562-.679.885-.448 1.612-.982 2.181-1.612a10.167 10.167 0 001.418-1.999c.376-.703.788-1.333 1.2-1.866l-8.313-45.538 13.002-.036 4.096 32.923h.169l15.874-32.972 13.366-.036-29.191 52.517c-1.066 1.963-2.157 3.575-3.284 4.86z" fill="#00609C"/><path d="M190.706 61.626c-2.072-1.939-4.762-2.908-8.082-2.896-3.49.012-6.532.812-9.125 2.423a20.287 20.287 0 00-6.361 6.192c-1.66 2.533-2.884 5.344-3.696 8.446-.812 3.102-1.2 6.144-1.2 9.1.012 2.145.291 4.181.848 6.096.558 1.914 1.406 3.61 2.545 5.089 1.139 1.478 2.593 2.642 4.374 3.514 1.77.872 3.914 1.297 6.411 1.297 1.866 0 3.623-.34 5.271-1.018 1.66-.667 3.126-1.563 4.398-2.703a16.053 16.053 0 003.224-3.974 14.466 14.466 0 001.733-4.702l13.692-.036c-1.381 4.35-3.017 8.046-4.895 11.063-1.878 3.018-3.999 5.477-6.35 7.368a22.601 22.601 0 01-7.828 4.108c-2.872.848-5.998 1.272-9.367 1.284-8.833.024-15.655-2.314-20.454-6.992-4.811-4.689-7.222-11.463-7.246-20.345-.012-5.053.763-9.84 2.314-14.371 1.563-4.52 3.805-8.52 6.725-11.985 2.933-3.453 6.495-6.204 10.7-8.252 4.205-2.035 8.931-3.066 14.154-3.078 3.598-.012 6.943.485 10.021 1.455 3.078.969 5.743 2.435 7.985 4.362 2.242 1.939 3.975 4.338 5.211 7.21 1.224 2.872 1.817 6.192 1.769 9.96l-13.657.037c-.012-3.83-1.054-6.726-3.114-8.652zm21.436 10.179c1.357-1.94 3.017-3.503 4.98-4.69 1.963-1.188 4.157-2.048 6.592-2.557a37.773 37.773 0 017.574-.775 48.704 48.704 0 016.507.424c2.254.29 4.338.86 6.241 1.72 1.902.86 3.453 2.073 4.677 3.636 1.212 1.575 1.793 3.66 1.745 6.277 0 2.193-.315 4.774-.957 7.755l-4.048 18.528c-.242.836-.4 1.854-.484 3.077a46.201 46.201 0 00-.122 3.163c0 .764.146 1.66.449 2.666l-12.675.024-.012-4.544c-1.721 1.963-3.829 3.417-6.326 4.35a22.234 22.234 0 01-7.755 1.406c-2.496 0-4.689-.315-6.556-.957-1.878-.655-3.441-1.527-4.689-2.618-1.248-1.09-2.181-2.375-2.775-3.817a12.001 12.001 0 01-.897-4.58c-.012-4.46 1.515-8.022 4.569-10.7 3.053-2.678 7.379-4.35 12.978-5.017 2.968-.363 5.562-.642 7.767-.824 2.193-.181 4.023-.472 5.489-.86 1.454-.388 2.533-.957 3.248-1.696.715-.74 1.066-1.867 1.066-3.345 0-1.187-.267-2.132-.812-2.847a5.9 5.9 0 00-2.011-1.685c-.8-.412-1.66-.69-2.581-.836a16.85 16.85 0 00-2.63-.218c-2.254.012-4.277.557-6.059 1.66-1.781 1.103-2.872 2.824-3.284 5.138l-11.85.036c.387-2.932 1.272-5.356 2.641-7.294zm18.891 18.903c-1.841.218-3.683.376-5.537.497a27.035 27.035 0 00-3.478.581 10.192 10.192 0 00-2.993 1.212c-.86.533-1.563 1.272-2.096 2.193-.534.921-.8 2.097-.8 3.514 0 1.721.703 3.018 2.108 3.866 1.406.86 3.03 1.284 4.872 1.272 1.963 0 3.623-.315 4.956-.945 1.333-.63 2.459-1.43 3.38-2.411a11.408 11.408 0 002.182-3.345 32.89 32.89 0 001.332-3.744l1.236-4.46a12.483 12.483 0 01-5.162 1.77zm48.312-16.94c-1.102-1.09-2.896-1.636-5.392-1.636-2.266.012-4.12.351-5.562 1.042-1.454.69-2.181 1.866-2.181 3.526 0 1.006.436 1.866 1.297 2.581.86.715 2.363 1.381 4.495 2.036l6.326 2.036a34.988 34.988 0 014.774 1.854c1.454.715 2.738 1.587 3.841 2.617a11.254 11.254 0 012.593 3.696c.63 1.43.945 3.078.945 4.98.013 2.848-.63 5.271-1.902 7.259-1.272 1.987-2.945 3.611-5.017 4.871-2.084 1.248-4.423 2.145-7.04 2.69a39.655 39.655 0 01-7.937.812c-2.254.012-4.544-.23-6.871-.691-2.314-.473-4.41-1.248-6.289-2.339a13.738 13.738 0 01-4.604-4.35c-1.188-1.805-1.794-4.071-1.794-6.798v-1.866l11.67-.024v1.503c0 1.066.266 1.975.811 2.75a6.48 6.48 0 002.097 1.903c.86.496 1.842.884 2.944 1.139 1.103.266 2.194.4 3.26.387.945 0 1.902-.096 2.848-.278a8.234 8.234 0 002.581-.945c.763-.449 1.393-1.006 1.866-1.697.472-.678.703-1.563.703-2.63 0-1.599-.425-2.726-1.261-3.38-.836-.654-1.926-1.212-3.296-1.684l-9.718-3.09c-1.599-.534-3.017-1.091-4.229-1.685a11.186 11.186 0 01-3.126-2.217 8.603 8.603 0 01-1.963-3.2c-.449-1.248-.679-2.786-.679-4.628-.012-2.727.63-5.017 1.903-6.859 1.272-1.842 2.92-3.344 4.943-4.508 2.024-1.163 4.229-1.999 6.641-2.508 2.411-.509 4.701-.775 6.907-.775 2.484 0 4.895.194 7.222.605 2.314.413 4.35 1.164 6.107 2.254 1.757 1.09 3.139 2.581 4.156 4.484 1.018 1.89 1.491 4.326 1.442 7.295l-11.766.024c-.048-1.927-.642-3.454-1.745-4.556zM316.123 47l-4.702 23.035h.182c.472-.654 1.163-1.381 2.048-2.156.896-.776 1.975-1.503 3.223-2.17 1.248-.654 2.714-1.223 4.386-1.672 1.673-.448 3.551-.678 5.647-.69 9.028-.025 13.548 4.12 13.572 12.408 0 .473-.061 1.09-.17 1.842a97.19 97.19 0 01-.4 2.278c-.145.775-.303 1.502-.448 2.193a28.66 28.66 0 00-.315 1.66l-5.671 27.131-12.736.037 5.586-27.12c.11-.714.279-1.671.485-2.859.206-1.188.315-2.12.315-2.775 0-1.37-.654-2.508-1.939-3.393-1.284-.884-2.678-1.333-4.168-1.333-1.915 0-3.599.388-5.065 1.127a12.416 12.416 0 00-3.757 2.92c-1.042 1.2-1.902 2.57-2.593 4.12a25.138 25.138 0 00-1.563 4.75l-5.138 24.611-12.638.024 13.111-63.944L316.123 47zm39.355 56.646a7.36 7.36 0 01-7.355 7.356 7.36 7.36 0 01-7.355-7.356 7.359 7.359 0 017.355-7.355 7.359 7.359 0 017.355 7.355z" fill="#00CD68"/><path d="M354.242 103.647a6.118 6.118 0 01-6.12 6.119 6.118 6.118 0 01-6.119-6.119 6.118 6.118 0 016.119-6.12c3.381-.012 6.12 2.739 6.12 6.12z" fill="#fff"/><path d="M344.922 103.754v-3.95l1.745.012c1.733.012 1.866.012 2.302.06.667.085 1.066.255 1.43.618.182.182.303.364.412.594.145.315.206.545.206.873 0 .557-.206 1.054-.594 1.478-.412.436-.86.642-1.563.739l-.097.012.182.085c.315.158.436.267.751.618.291.339.57.739 1.042 1.503.17.278.412.666.546.872.121.206.242.388.254.412l.024.036h-1.551l-.109-.181c-.06-.109-.133-.231-.157-.291-.025-.061-.085-.158-.134-.242-.545-.982-.63-1.127-.86-1.467-.364-.545-.666-.872-.957-1.018-.243-.121-.485-.157-1.115-.157h-.473v3.344h-1.26v-3.95h-.024z" fill="#00CD68"/><path d="M348.362 103.233c.34-.049.509-.097.715-.194a.75.75 0 00.243-.182c.218-.218.315-.436.327-.751.012-.158 0-.206-.024-.315a1.067 1.067 0 00-.57-.715c-.182-.097-.327-.134-.594-.17-.145-.024-.387-.024-1.224-.036l-1.042-.012v2.399l.994-.012c.776.012 1.03 0 1.175-.012z" fill="#fff"/></svg>