<svg width="92" height="32" viewBox="0 0 460 160" fill="none" xmlns="http://www.w3.org/2000/svg"><path d="M456.122 76.274c0 2.661 0 5.323-.685 7.376-2.053-.684-4.03-.684-6.692-.684-2.053 0-4.03.684-6.083.684v33.536h-8.746V78.327c3.346-1.369 10.114-2.662 14.753-2.662 2.738-.076 5.4-.076 7.453.609zm-58.403 16.73h20.152c0-6.008-4.031-10.038-10.038-10.038-6.084 0-9.43 3.346-10.114 10.038zm28.213 7.376h-27.529c.685 7.377 4.715 10.723 12.776 10.723 4.715 0 9.429-1.369 14.068-3.346-.684 2.661-1.369 5.323-1.369 8.06-4.03 1.978-8.745 2.662-12.775 2.662-14.753 0-22.13-8.061-22.13-21.445 0-12.091 6.084-21.445 19.468-21.445 12.776 0 18.099 8.061 18.099 18.1.076 2.66-.608 4.638-.608 6.691zm-52.396 8.061v-24.79c-1.977 0-4.715-.685-6.692-.685-8.745 0-12.776 5.323-12.776 14.753 0 8.06 3.347 13.384 10.723 13.384 3.422 0 6.084-1.369 8.745-2.662zm8.745-46.236v54.905h-8.06l-.685-4.715c-1.977 3.346-5.399 6.008-11.407 6.008-10.114 0-16.806-8.061-16.806-20.76 0-14.069 7.377-22.13 21.445-22.13 2.662 0 4.715.685 6.692.685v-12.7c2.814-1.293 6.16-1.293 8.821-1.293zm-44.258 28.746v26.159h-8.745V92.32c0-6.008-2.054-9.354-10.723-9.354-2.053 0-4.03.684-6.692.684v33.536h-8.745V78.327c5.399-1.369 11.407-2.662 16.122-2.662 14.068-.076 18.783 5.932 18.783 15.286zm-53.004 17.49v-24.79c-2.053 0-4.03-.685-6.008-.685-9.429 0-13.46 6.007-13.46 14.753 0 8.06 3.346 13.384 10.723 13.384 3.346 0 6.692-.685 8.745-2.662zm8.745-30.19v38.859h-8.061l-.684-4.715c-2.053 3.346-5.399 6.008-10.722 6.008-10.723 0-17.415-8.061-17.415-20.76 0-14.069 7.377-22.13 22.129-22.13 5.324.076 10.038.76 14.753 2.738zm-46.996 32.852c2.662 0 5.399-.685 7.377-1.369-.685 1.977-.685 4.715-1.369 7.376-2.054.685-4.715 1.369-7.377 1.369-8.061 0-13.384-4.03-13.384-13.384v-41.52c2.662-.685 5.399-1.37 8.061-1.37v14.753h14.069c0 2.662-.685 5.4-.685 7.377H240v19.391c.076 5.323 2.738 7.377 6.768 7.377zM223.27 90.951v26.159h-8.745V92.32c0-6.008-1.977-9.354-10.723-9.354-1.977 0-4.715.684-7.376.684v33.536h-8.745V78.327c6.007-1.369 12.091-2.662 16.121-2.662 14.753-.076 19.468 5.932 19.468 15.286zm-53.688 17.49v-24.79c-1.369 0-3.346-.685-6.008-.685-8.745 0-13.384 6.007-13.384 14.753 0 8.06 3.346 13.384 11.407 13.384 3.27 0 6.008-.685 7.985-2.662zm8.745-30.19v38.859h-8.061v-4.715c-2.661 3.346-6.007 6.008-11.407 6.008-10.038 0-17.414-8.061-17.414-20.76 0-14.069 7.376-22.13 22.129-22.13 6.008.076 10.723.76 14.753 2.738zm-78.48 37.49c0-3.346.685-5.323 1.37-8.06 4.715 1.977 10.038 2.661 14.753 2.661 7.376 0 11.406-1.977 11.406-6.692s-3.346-6.692-10.722-10.038l-4.03-1.369c-7.377-3.346-12.092-7.376-12.092-16.045 0-8.745 6.008-14.753 18.784-14.753 5.399 0 10.038.684 14.068 1.977 0 3.346-.684 6.008-1.369 8.06-4.03-1.368-9.429-1.976-12.775-1.976-6.692 0-10.038 2.661-10.038 6.692 0 4.03 2.661 6.692 8.745 8.745l4.03 1.977c10.038 4.03 14.069 8.745 14.069 16.046 0 9.353-6.692 15.437-20.152 15.437-6.692.076-12.016-.608-16.046-2.662zM60.229 76.882c-.684-3.346-1.369-6.008-2.662-8.745L44.182 45.323c-.684-1.369-1.368-3.346-1.977-5.323v1.369c-3.346 5.323-3.346 12.091 0 18.099l10.038 18.099c3.346 5.323 3.346 12.7 0 18.098l-.684 1.37c0-1.978-.684-4.031-1.977-6.008l-9.43-16.73-6.008-10.038c-1.368-1.978-1.977-4.03-1.977-6.008l-.684 1.369c-3.346 5.323-3.346 12.091 0 18.099l10.722 18.099c2.662 6.007 2.662 12.699 0 18.098l-.684 1.369c-.684-1.977-1.369-4.03-1.977-5.323L26.16 87.148c-1.977-3.346-2.662-6.692-2.662-10.038C9.43 80.456 0 88.517 0 97.186 0 109.886 18.783 120 42.281 120c22.814 0 41.597-10.038 41.597-22.814-.152-8.897-9.581-16.882-23.65-20.304z" fill="#E41513"/></svg>