<svg width="44" height="32" viewBox="0 0 223 160" fill="none" xmlns="http://www.w3.org/2000/svg"><g clip-path="url(#clip0)"><path d="M213.427 10H9.79C4.383 10 0 14.383 0 19.79v120.42c0 5.407 4.383 9.79 9.79 9.79h203.637c5.407 0 9.79-4.383 9.79-9.79V19.79c0-5.407-4.383-9.79-9.79-9.79z" fill="#FBDE00"/><path d="M44.007 33.148c0-5.948-7.39-10.796-16.507-10.796-9.114 0-16.506 4.848-16.506 10.796v.632c0 6.31 6.458 11.42 16.506 11.42 10.107 0 16.507-5.109 16.507-11.419v-.633z" fill="#002F6D"/><path d="M43.376 33.143c0 5.607-7.106 10.153-15.872 10.153s-15.87-4.546-15.87-10.153c0-5.608 7.104-10.154 15.87-10.154 8.766 0 15.872 4.546 15.872 10.154z" fill="#FFE900"/><path d="M22.233 29.94c-.008.015-.166.18-.064.311.25.32 1.024.503 1.807.328.466-.105 1.062-.58 1.64-1.038.627-.499 1.25-.997 1.875-1.195.662-.21 1.086-.12 1.366-.035.307.09.669.293 1.245.726 1.087.817 5.454 4.628 6.207 5.287.607-.274 3.308-1.437 6.979-2.246-.32-1.957-1.51-3.747-3.314-5.212-2.516 1.057-5.59 1.607-8.596.14-.016-.007-1.643-.778-3.248-.74-2.385.056-3.417 1.088-4.512 2.18l-1.384 1.494h-.001z" fill="#fff"/><path d="M36.133 34.738c-.051-.045-5.136-4.494-6.286-5.359-.668-.5-1.038-.627-1.427-.677a1.944 1.944 0 00-.679.065c-.535.147-1.235.615-1.857 1.107-.644.513-1.251.996-1.815 1.122-.72.162-1.599-.029-2-.3a.884.884 0 01-.332-.364c-.147-.343.126-.617.17-.663l1.403-1.518c.163-.162.327-.326.496-.486-.453.059-.872.175-1.278.288-.51.143-.998.279-1.492.279-.207 0-1.313-.182-1.523-.24-1.27-.346-2.383-.685-4.048-1.462-1.994 1.485-3.328 3.341-3.713 5.386.287.076.749.213.942.256 4.513 1.004 5.919 2.037 6.173 2.253a1.5 1.5 0 011.12-.501c.499 0 .95.251 1.222.639.305-.246.685-.38 1.076-.379.21 0 .427.04.646.114.51.174.77.514.908.82.17-.077.38-.134.628-.133.243 0 .496.055.75.165.833.358.962 1.175.886 1.792a1.79 1.79 0 011.755 2.624c.268.15.952.492 1.553.416.48-.06.662-.225.728-.317.044-.063.092-.137.047-.19l-1.273-1.415s-.21-.199-.14-.275c.072-.078.2.034.293.11.648.542 1.44 1.36 1.44 1.36.013.007.065.111.357.163.253.045.698.02 1.007-.234.078-.064.156-.145.221-.226-.005.003-.01.01-.015.01.326-.416-.036-.838-.036-.838l-1.486-1.669s-.212-.196-.14-.276c.065-.068.2.035.294.113.47.393 1.135 1.061 1.774 1.685.123.092.685.437 1.425-.05.45-.294.542-.657.529-.931-.032-.363-.314-.62-.314-.62l-2.03-2.042s-.216-.183-.14-.276c.062-.079.202.035.293.111.647.542 2.398 2.146 2.398 2.146.025.019.63.449 1.378-.027.267-.17.438-.429.452-.728a1.08 1.08 0 00-.34-.828z" fill="#fff"/><path d="M26.282 37.327c-.314-.004-.658.183-.704.156-.025-.017.02-.144.049-.215.03-.074.445-1.322-.565-1.755-.774-.332-1.247.042-1.41.21-.042.045-.06.041-.066-.016-.015-.224-.116-.832-.784-1.035-.953-.293-1.567.373-1.723.613a1.104 1.104 0 00-2.202.141 1.109 1.109 0 001.874.8c.006.004.009.015.005.036-.046.274-.132 1.27.91 1.675.418.162.774.042 1.067-.166.09-.062.103-.035.091.047-.038.257.01.805.779 1.116.584.237.93-.006 1.157-.215.098-.09.125-.076.13.063a1.388 1.388 0 001.39 1.33c.771 0 1.395-.622 1.396-1.391a1.4 1.4 0 00-1.394-1.394z" fill="#fff"/><path d="M26.283 40.013a1.282 1.282 0 01-1.29-1.234c-.002-.058-.008-.217-.141-.217-.055 0-.103.033-.157.082-.154.143-.35.287-.636.287a1.108 1.108 0 01-.418-.09c-.736-.299-.747-.805-.716-1.008.008-.055.01-.11-.027-.155l-.045-.041h-.046c-.038 0-.076.016-.128.053-.213.15-.418.222-.625.222a.978.978 0 01-.35-.069c-.97-.376-.893-1.292-.846-1.568.007-.056-.007-.1-.042-.128l-.069-.057-.064.062a.998.998 0 01-.696.282 1.008 1.008 0 01-1.008-1.008 1.006 1.006 0 112.003-.127l.035.27.148-.228c.017-.027.423-.643 1.172-.642.142 0 .29.022.438.068.596.182.697.724.713.95.01.13.105.136.122.136.052 0 .09-.032.117-.06.112-.118.358-.314.742-.314.175.001.362.042.555.126.947.407.519 1.612.513 1.625-.081.2-.085.288-.008.338l.037.018h.028c.043 0 .095-.02.184-.049.128-.044.323-.112.505-.11a1.306 1.306 0 011.295 1.294 1.296 1.296 0 01-1.295 1.292zm10.047-5.807c-1.567-1.367-5.185-4.513-6.165-5.25-.56-.42-.942-.642-1.278-.742a2.125 2.125 0 00-.627-.098c-.25 0-.518.045-.797.134-.633.2-1.264.702-1.874 1.188l-.032.024c-.568.452-1.156.92-1.601 1.018a2.702 2.702 0 01-.593.068c-.498-.001-.945-.145-1.113-.358-.027-.037-.01-.094.055-.177l.008-.01 1.377-1.485c1.08-1.079 2.1-2.097 4.445-2.15l.118-.003c1.458 0 2.92.655 3.083.73 1.368.669 2.782 1.007 4.203 1.01 1.48 0 3.007-.367 4.614-1.107a12.862 12.862 0 00-.558-.44c-1.411.61-2.756.92-4.053.92-1.324-.002-2.648-.32-3.933-.947-.068-.032-1.68-.793-3.356-.793h-.133c-1.97.047-3.08.747-3.826 1.36-.726.017-1.352.193-1.91.348-.497.138-.927.259-1.345.258-.172 0-.484-.016-.51-.017-.482-.015-2.909-.61-4.84-1.34-.196.139-.386.284-.57.43 2.016.827 4.47 1.466 5.244 1.516.215.014.445.04.675.04.512 0 1.023-.145 1.518-.283.293-.082.616-.171.954-.237-.09.088-.18.18-.271.27l-1.4 1.514c-.11.112-.35.408-.192.774.063.147.19.288.368.409.333.224.93.376 1.485.376.21 0 .41-.02.594-.062.586-.131 1.201-.622 1.853-1.14.52-.413 1.258-.936 1.823-1.091.166-.044.336-.067.507-.069a.96.96 0 01.132.007c.372.048.735.175 1.379.658 1.148.864 6.232 5.31 6.282 5.355a.977.977 0 01.305.747c-.012.259-.156.49-.406.65-.217.136-.44.207-.667.207-.34 0-.574-.16-.589-.17-.02-.016-1.761-1.614-2.401-2.15-.103-.084-.202-.16-.303-.16a.165.165 0 00-.132.063c-.1.123.012.296.145.409l2.035 2.045c.002.002.253.237.28.551.017.34-.146.622-.482.844a1.314 1.314 0 01-.722.238c-.206 0-.408-.062-.58-.176l-.292-.288c-.533-.525-1.084-1.067-1.487-1.404-.098-.082-.204-.156-.304-.156a.173.173 0 00-.127.053c-.047.051-.078.143.036.296.047.063.102.115.102.115l1.485 1.667c.013.015.306.363.033.712l-.052.066a1.325 1.325 0 01-.138.132c-.253.209-.59.232-.724.232-.068 0-.135-.006-.202-.017-.147-.028-.244-.069-.293-.124l-.017-.02a22.753 22.753 0 00-1.45-1.364c-.081-.068-.182-.154-.288-.154a.175.175 0 00-.134.06c-.122.134.062.334.14.408l1.266 1.397a.296.296 0 01-.05.086c-.044.061-.197.215-.657.274-.055.006-.112.01-.167.01-.474 0-.98-.23-1.24-.37a1.893 1.893 0 00-1.708-2.693l-.069.002c.034-.476-.032-1.377-.957-1.774a1.984 1.984 0 00-.79-.173 1.62 1.62 0 00-.58.104 1.59 1.59 0 00-.924-.785 2.074 2.074 0 00-.678-.119c-.384 0-.74.113-1.056.338a1.6 1.6 0 00-1.243-.6 1.6 1.6 0 00-1.127.466c-.395-.3-1.958-1.294-6.144-2.244-.319-.08-.636-.168-.952-.263a6.734 6.734 0 00-.108.687s.774.185.924.219c4.276.95 5.689 1.936 5.927 2.123a1.605 1.605 0 001.772 2.193c.134.649.558 1.142 1.209 1.395.296.121.625.144.935.064.12.306.391.685.994.93.212.085.424.13.63.13.168 0 .333-.029.49-.088a1.886 1.886 0 003.099.6c.303.169.948.475 1.598.477.085 0 .164-.006.242-.016.646-.082.947-.333 1.085-.53a.81.81 0 00.067-.108c.152.043.32.079.512.079.352 0 .692-.12 1.034-.37.336-.242.575-.59.61-.886l.002-.013c.112.023.229.036.345.036.363 0 .72-.114 1.061-.338.66-.43.774-.995.763-1.364.115.024.233.037.35.037.341 0 .676-.103.995-.307a1.45 1.45 0 00.69-1.126 1.515 1.515 0 00-.218-.908c1.103-.476 3.625-1.395 6.595-2.065a6.742 6.742 0 00-.092-.683c-3.593.797-6.276 1.958-6.947 2.256zm14.32-7.01v4.856h-1.938v-4.469c0-2.168 1.09-3.246 3.26-3.246.977 0 1.723.215 2.27.646.546-.416 1.292-.617 2.27-.617 2.17 0 3.246 1.077 3.232 3.247v4.467h-.991c-.632-.043-.949-.345-.949-.948v-3.907c-.043-.79-.474-1.179-1.321-1.179s-1.279.389-1.293 1.179v4.827h-1.924v-4.856c-.044-.79-.474-1.178-1.322-1.178-.848 0-1.279.388-1.293 1.178zm18.462.963c.057-2.457 1.27-3.822 3.813-3.822h.578v1.982l-.888.02c-1.063 0-1.563.685-1.563 1.792v3.95h-1.94v-3.922zm17.636.71v-.622c-.445.186-.962.262-1.523.378-.76.143-1.15.502-1.15 1.063.043.603.36.891.963.891 1.063 0 1.71-.633 1.71-1.71zM84.2 26.72l-1.78-.002c.07-1.469.808-2.448 2.977-2.448 2.098 0 3.161.69 3.204 2.098v2.586c0 2.097-1.264 3.031-3.318 3.175-1.824.144-3.09-.705-3.09-2.385.044-1.825 1.365-2.312 3.29-2.5.82-.1 1.236-.344 1.236-.761-.043-.43-.446-.637-1.236-.646-.895-.012-1.182.523-1.282.883H84.2zm7.468 1.509c-.015 1.537.502 2.313 1.594 2.313 1.091 0 1.638-.776 1.638-2.313-.044-1.465-.575-2.183-1.61-2.183-1.034 0-1.566.718-1.622 2.183zm5.128-6.318v6.85c0 2.284-1.193 3.419-3.564 3.404-2.354-.043-3.533-1.321-3.533-3.85 0-2.585 1.005-3.907 3.031-3.98.949 0 1.68.39 2.17 1.18v-2.422l.004-.215c.632-.943 1.892-.967 1.892-.967zM50.175 33.238h.5v10.065h-1.91v-8.835c0-.287.593-1.23 1.41-1.23zm9.849 8.44c-1.092 0-1.609-.775-1.595-2.312.059-1.466.59-2.183 1.624-2.183 1.034 0 1.566.717 1.609 2.183 0 1.537-.546 2.312-1.638 2.312zm.56-6.205c-.948 0-1.667.388-2.154 1.178v-3.413h-.217c-.953.012-1.453.52-1.694.936v-.066 5.79c0 2.283 1.192 3.418 3.563 3.404 2.356-.044 3.534-1.321 3.534-3.85 0-2.586-1.007-3.907-3.032-3.979zm4.865-9.226c-.243-.267-.613-.401-1.11-.401-.325 0-.594.054-.808.164a1.495 1.495 0 00-.788.924 2.33 2.33 0 00-.093.487h3.309c-.096-.515-.267-.907-.51-1.175v.001zm-2.298 3.895c.305.296.744.444 1.318.444.41 0 .763-.102 1.059-.307.295-.206.478-.423.544-.652h1.79c-.286.888-.725 1.523-1.317 1.905-.592.381-1.308.573-2.148.573a4.23 4.23 0 01-1.576-.28 3.275 3.275 0 01-1.189-.794 3.574 3.574 0 01-.752-1.233 4.502 4.502 0 01-.264-1.575 4.307 4.307 0 01.272-1.547 3.62 3.62 0 01.774-1.239 3.64 3.64 0 011.195-.823 3.833 3.833 0 011.54-.3c.63 0 1.179.12 1.647.365.468.242.852.57 1.153.98.3.412.517.879.651 1.405.134.524.181 1.073.143 1.646H62.65c.029.66.195 1.136.5 1.432zm14.652-4.32c-.327 0-.602.075-.825.224-.221.15-.407.347-.542.578a2.497 2.497 0 00-.297.782 4.06 4.06 0 000 1.671c.06.28.152.533.282.76.13.226.307.411.53.556.22.145.49.217.809.217.492 0 .87-.137 1.135-.412.265-.275.431-.644.5-1.106h1.981c-.135.993-.52 1.75-1.157 2.27-.636.521-1.452.782-2.445.782a4.093 4.093 0 01-1.54-.282 3.411 3.411 0 01-1.194-.79 3.584 3.584 0 01-.767-1.207 4.189 4.189 0 01-.274-1.54c0-.58.084-1.117.253-1.614.157-.476.41-.914.744-1.287a3.408 3.408 0 011.201-.846c.473-.203 1.013-.304 1.62-.304.444 0 .87.058 1.281.174a3.4 3.4 0 011.1.528c.323.235.585.53.788.881.202.353.318.77.347 1.253h-2.01c-.136-.86-.642-1.288-1.52-1.288zm22.329 3.276c.058.285.157.54.297.767.14.227.325.408.557.543.231.135.521.202.867.202.348 0 .64-.068.876-.202.237-.135.425-.316.564-.543.14-.227.239-.482.297-.767a4.48 4.48 0 000-1.758 2.253 2.253 0 00-.297-.766 1.657 1.657 0 00-.564-.542c-.236-.14-.528-.21-.876-.21-.346 0-.636.07-.867.21-.226.134-.417.32-.558.542a2.252 2.252 0 00-.296.766 4.52 4.52 0 000 1.758zm-1.866-2.502a3.5 3.5 0 01.782-1.244 3.49 3.49 0 011.214-.796 4.266 4.266 0 011.591-.282c.589 0 1.121.094 1.599.282a3.49 3.49 0 011.223.795c.337.343.597.758.781 1.245a4.6 4.6 0 01.274 1.628c0 .597-.091 1.137-.274 1.619-.17.463-.437.884-.781 1.237a3.399 3.399 0 01-1.223.789 4.43 4.43 0 01-1.599.274 4.368 4.368 0 01-1.59-.274 3.409 3.409 0 01-1.215-.789 3.503 3.503 0 01-.782-1.237 4.531 4.531 0 01-.275-1.62c0-.598.092-1.14.274-1.627h.001zM64.74 39.358c.058-2.457 1.271-3.822 3.814-3.822h.578v1.982l-.89.02c-1.063 0-1.563.685-1.563 1.792v3.95H64.74v-3.922h-.001zm9.713-1.912c-.244-.267-.614-.401-1.11-.401-.325 0-.595.054-.81.164a1.496 1.496 0 00-.787.924 2.33 2.33 0 00-.093.487h3.309c-.096-.515-.266-.907-.51-1.175v.001zm-2.3 3.895c.306.296.745.444 1.319.444.41 0 .763-.102 1.059-.307.297-.206.478-.423.544-.652h1.79c-.286.888-.725 1.523-1.317 1.905-.592.382-1.308.572-2.148.572a4.226 4.226 0 01-1.576-.279 3.275 3.275 0 01-1.189-.794 3.578 3.578 0 01-.752-1.232 4.503 4.503 0 01-.264-1.576 4.307 4.307 0 01.272-1.547 3.62 3.62 0 01.774-1.239c.339-.351.746-.63 1.195-.822a3.833 3.833 0 011.54-.302c.63 0 1.179.122 1.647.366.468.242.852.57 1.153.98.3.412.518.879.651 1.404.134.525.182 1.075.144 1.647h-5.342c.029.66.195 1.136.5 1.433zm-17.516-6.364h-1.91v-1.74h1.91v1.74zm0 8.325h-1.91v-7.45h1.91v7.45z" fill="#002F6D"/><path d="M185.683 119.834c0-4.718 2.215-8.908 5.623-11.615a14.664 14.664 0 00-9.117-3.162 14.761 14.761 0 00-13.655 9.12 14.761 14.761 0 00-1.122 5.657c0 8.173 6.607 14.782 14.777 14.782a14.67 14.67 0 009.117-3.164 14.744 14.744 0 01-5.623-11.618z" fill="#E31021"/><path d="M215.237 119.834c0 8.173-6.609 14.782-14.78 14.782a14.674 14.674 0 01-9.115-3.164c3.45-2.705 5.624-6.896 5.624-11.618 0-4.718-2.219-8.908-5.624-11.615a14.67 14.67 0 019.114-3.162c8.172 0 14.781 6.652 14.781 14.777z" fill="#F49D1E"/><path d="M191.342 108.219h-.036c-3.408 2.707-5.623 6.897-5.623 11.616 0 4.722 2.215 8.951 5.623 11.617h.036c3.45-2.704 5.625-6.896 5.625-11.617 0-4.719-2.22-8.909-5.625-11.616z" fill="#EA611C"/><path d="M176.118 142.087v-2.465c0-.942-.577-1.559-1.56-1.559-.5 0-1.031.164-1.4.697-.286-.451-.699-.697-1.315-.697-.406 0-.817.125-1.149.575v-.496h-.862v3.944h.862v-2.174c0-.702.37-1.032.945-1.032.572 0 .858.372.858 1.031v2.174h.867v-2.174c0-.701.408-1.031.943-1.031.578 0 .868.372.868 1.031v2.174h.943v.002zm12.76-3.944h-1.391v-1.185h-.858v1.186h-.786v.783h.786v1.804c0 .903.363 1.436 1.347 1.436.372 0 .785-.122 1.07-.284l-.242-.738a1.382 1.382 0 01-.744.2c-.414 0-.573-.244-.573-.652v-1.767h1.391v-.783zm7.313-.078a1.152 1.152 0 00-1.03.574v-.496h-.86v3.944h.86v-2.215c0-.66.287-1.027.819-1.027.168 0 .37.036.54.081l.244-.826c-.167-.036-.412-.036-.574-.036l.001.001zm-11.047.408c-.407-.284-.979-.41-1.596-.41-.987 0-1.645.489-1.645 1.268 0 .659.49 1.032 1.357 1.156l.408.041c.455.077.698.201.698.408 0 .287-.327.497-.903.497-.469 0-.927-.144-1.311-.415l-.412.656c.45.329 1.065.494 1.681.494 1.147 0 1.805-.535 1.805-1.275 0-.695-.532-1.067-1.349-1.189l-.414-.043c-.368-.039-.657-.122-.657-.367 0-.288.289-.45.744-.45.49 0 .982.203 1.234.325l.36-.695v-.001zm22.905-.409a1.136 1.136 0 00-1.018.575v-.496h-.868v3.944h.868v-2.215c0-.66.284-1.027.816-1.027.165 0 .371.036.529.081l.253-.826c-.165-.036-.41-.036-.58-.036zm-10.999 2.049c0 1.194.821 2.054 2.092 2.054.576 0 .988-.122 1.404-.451l-.416-.698c-.327.249-.655.369-1.029.369-.692 0-1.189-.494-1.189-1.275 0-.738.497-1.234 1.189-1.268.372 0 .702.121 1.029.366l.416-.695c-.416-.327-.828-.453-1.404-.453-1.271.002-2.092.864-2.092 2.051zm7.962 0v-1.968h-.86v.496c-.285-.373-.699-.575-1.232-.575-1.103 0-1.973.861-1.973 2.048 0 1.194.87 2.054 1.973 2.054.575 0 .991-.206 1.232-.569v.49h.86v-1.976zm-3.161 0c0-.692.455-1.268 1.196-1.268.692 0 1.19.531 1.19 1.268 0 .705-.5 1.276-1.19 1.276-.744-.046-1.196-.573-1.196-1.276zm-10.299-2.049c-1.152 0-1.972.817-1.972 2.049s.82 2.054 2.015 2.054c.571 0 1.145-.163 1.595-.533l-.408-.615c-.328.249-.742.415-1.151.415-.538 0-1.067-.253-1.193-.947h2.917v-.33c.045-1.276-.697-2.093-1.803-2.093zm0 .74c.53 0 .902.33.985.946h-2.055c.082-.539.456-.946 1.07-.946zm21.388 1.309v-3.528h-.868v2.056c-.286-.373-.689-.575-1.231-.575-1.106 0-1.966.861-1.966 2.048 0 1.194.859 2.054 1.966 2.054.578 0 .988-.206 1.231-.569v.49h.868v-1.976zm-3.161 0c0-.692.446-1.268 1.187-1.268.704 0 1.192.531 1.192 1.268 0 .705-.489 1.276-1.192 1.276-.742-.046-1.187-.573-1.187-1.276zm-28.822 0v-1.968h-.857v.496c-.287-.373-.702-.575-1.233-.575-1.116 0-1.972.861-1.972 2.048 0 1.194.857 2.054 1.972 2.054.572 0 .986-.206 1.233-.569v.49h.857v-1.976zm-3.205 0c0-.692.456-1.268 1.195-1.268.695 0 1.194.531 1.194 1.268 0 .705-.501 1.276-1.194 1.276-.739-.046-1.195-.573-1.195-1.276z" fill="#000"/><path d="M25.403 84.404v3.008h2.324c.403 0 .707.063 1.01.352.353.328.392.63.392 1.07v2.693c0 .39-.04.667-.303.982-.317.377-.645.428-1.099.428h-2.804c-.328 0-.518-.088-.833-.227l-.48-.214c-.341-.15-.72-.264-.72-.705 0-.327.278-.63.607-.63.15 0 .264.039.403.102l.379.163c.176.075.467.252.67.252h2.917V88.67H24.14v-5.525h4.357c.329 0 .631.177.631.63s-.303.63-.631.63h-3.094zm8.869 4.078h2.45v-3.637c0-.315.151-.63.63-.63.48 0 .632.315.632.63v3.637c.33 0 .632.176.632.629s-.304.63-.632.63v2.566c0 .403-.176.63-.631.63s-.632-.227-.632-.63v-2.566H33.01v-5.965c0-.314.152-.63.631-.63.48 0 .632.316.632.63v4.707zm8.855-4.078v4.078h4.219c.631 0 .757.264.757.842v2.82c0 .591-.252.793-.821.793h-4.596c-.594 0-.822-.215-.822-.793v-8.369c0-.289.102-.63.543-.63h.758c.33 0 .593.303.593.63 0 .378-.264.63-.631.63zm3.713 5.336h-3.714v1.939h3.713V89.74h.001zm7.038-2.328h1.187v-3.008h-1.187v3.008zm-.632-4.267h2.45c.43 0 .632.303.632.63v3.637c.392 0 .694.138.921.352.227.214.341.53.341.919v2.996c0 .767-.48 1.258-1.263 1.258h-3.712c-.784 0-1.263-.49-1.263-1.26v-2.993c0-.39.113-.705.34-.918.229-.215.531-.353.923-.353v-3.637c0-.327.201-.63.631-.63zm-.631 8.533h3.713V88.67h-3.713v3.008zm18.974-8.532h3.713c.696 0 1.263.566 1.263 1.258v7.275a1.24 1.24 0 01-1.263 1.258H71.59c-.72 0-1.263-.554-1.263-1.26v-7.273c0-.692.569-1.258 1.263-1.258zm0 8.532h3.713v-7.274H71.59v7.274zm10.12-3.196h2.45v-3.637c0-.315.15-.63.631-.63.48 0 .63.315.63.63v3.637c.33 0 .632.176.632.629s-.303.63-.631.63v2.566c0 .403-.177.63-.63.63-.456 0-.632-.227-.632-.63v-2.566h-3.714v-5.965c0-.314.152-.63.632-.63s.631.316.631.63v4.707zm12.568-4.078h-3.713c0 .278-.227.63-.631.63s-.632-.352-.632-.63v-.629c0-.277.228-.63.632-.63h5.607v3.65c0 .44.013.49-.34.793l-1.769 1.523c-.328.29-.353.315-.353.754v2.442c0 .403-.177.63-.632.63s-.631-.227-.631-.63v-3.033c0-.415.012-.452.328-.73l1.742-1.497c.417-.365.392-.352.392-.906v-1.737zm7.037 3.008h1.188v-3.008h-1.188v3.008zm-.631-4.267h2.45c.429 0 .632.303.632.63v3.637a1.3 1.3 0 01.922.352c.227.214.341.53.341.919v2.996c0 .767-.48 1.258-1.263 1.258h-3.714c-.783 0-1.263-.49-1.263-1.26v-2.993c0-.39.115-.705.342-.918.227-.215.53-.353.921-.353v-3.637c0-.327.203-.63.632-.63zm-.632 8.533h3.714V88.67h-3.714v3.008zm22.688 0v-4.052h-4.344a.641.641 0 01-.631-.628v-3.221a.64.64 0 01.631-.63h4.975a.64.64 0 01.632.629v8.532a.614.614 0 01-.632.63h-.631a.622.622 0 01-.45-.18.616.616 0 01-.181-.45c0-.377.265-.63.631-.63zm-3.712-5.31h3.712v-1.962h-3.712v1.962zm9.486-3.221h3.714c.695 0 1.263.565 1.263 1.257v7.275a1.24 1.24 0 01-1.263 1.258h-3.714a1.242 1.242 0 01-1.263-1.26v-7.273c0-.692.569-1.258 1.263-1.258zm0 8.53h3.714v-7.273h-3.714v7.274zm11.976 0h1.225v-2.54c0-.366.164-.63.632-.63.467 0 .63.264.63.63v3.171c0 .452-.303.629-.63.629h-4.976c-.328 0-.632-.177-.632-.63s.304-.63.632-.63h1.856v-7.273h-1.856c-.328 0-.632-.177-.632-.629 0-.453.304-.63.632-.63h3.119v8.533zm7-3.007v3.008h4.344c.329 0 .631.176.631.63 0 .452-.303.629-.631.629h-5.607v-4.102c0-.945.479-1.423 1.426-1.423h3.549v-3.008h-4.344c-.329 0-.631-.176-.631-.629s.303-.63.631-.63h4.192c.417 0 .708.064 1.023.353.354.328.392.668.392 1.12v2.58c0 .453-.038.793-.392 1.12-.315.29-.606.352-1.023.352h-3.56zm22.687-4.264h-3.713c0 .277-.227.629-.631.629-.405 0-.632-.352-.632-.63v-.629c0-.277.227-.63.632-.63h5.607v3.65c0 .44.012.49-.341.793l-1.768 1.523c-.328.29-.353.315-.353.755v2.441c0 .402-.177.63-.632.63s-.632-.228-.632-.63v-3.033c0-.415.013-.452.329-.73l1.743-1.497c.416-.365.391-.353.391-.906v-1.736zm7.038 3.007h1.186v-3.007h-1.186v3.007zm-.632-4.266h2.45c.43 0 .631.302.631.629v3.637c.392 0 .695.138.922.353.228.213.341.528.341.918v2.996c0 .767-.48 1.258-1.263 1.258h-3.712c-.783 0-1.263-.49-1.263-1.26v-2.994c0-.39.113-.705.341-.918.227-.215.53-.353.922-.353v-3.637c0-.327.201-.63.631-.63zm-.631 8.532h3.712V88.67h-3.712v3.008zm9.486-8.532h3.714c.695 0 1.263.566 1.263 1.258v7.275a1.24 1.24 0 01-1.263 1.258h-3.714a1.24 1.24 0 01-1.262-1.26v-7.273c0-.692.568-1.258 1.262-1.258zm0 8.532h3.714v-7.275h-3.714v7.275zm9.488-8.532h3.714c.694 0 1.263.566 1.263 1.258v7.275a1.24 1.24 0 01-1.263 1.258h-3.714a1.242 1.242 0 01-1.263-1.26v-7.273c0-.692.568-1.258 1.263-1.258zm0 8.532h3.714v-7.275h-3.714v7.275z" fill="#fff"/><path fill-rule="evenodd" clip-rule="evenodd" d="M166.116 29.463l-3.179-.012h-2.425v7.757h2.608v-5.94h1.824c1.243 0 1.253 1.128 1.263 2.183v3.757h2.589V33.45c0-3.32-1.06-3.99-2.68-3.99v.002zm9.028-.012l-1.651 5.574-.111.254s-1.672-5.716-1.694-5.828h-2.77c.072.204 2.844 7.655 2.873 7.757h3.026c.031-.102 2.782-7.553 2.865-7.757h-2.538zm16.314 3.797s2.262-3.564 2.415-3.797h-2.791l-1.306 2.457-1.202-2.457h-3.058c.154.224 2.447 3.797 2.447 3.797l-1.448 2.173c-2.302.07-3.045.07-3.749.07h-.216c-1.486 0-2.373-.375-2.525-1.44l-.011-.082h5.492v-.427c0-1.309-.387-4.354-3.921-4.354-2.529 0-4.17 1.583-4.17 4.05 0 2.416 1.824 4.061 4.525 4.07l2.558-.04 2.426-.06h1.487c.052-.081 1.365-2.56 1.365-2.56s1.131 2.478 1.172 2.56h3.108c-.163-.234-2.598-3.96-2.598-3.96zm-11.403-.823c.04-.526.287-1.511 1.427-1.511 1.212 0 1.436.903 1.456 1.512h-2.883zm-23.803 4.784h2.578v-7.757h-2.578v7.757zm0-9.219h2.578v-2.326h-2.578v2.327z" fill="#0E2381"/><path d="M196.507 37.413v-4.571h2.145c.815 0 1.288.5 1.288 1.165 0 .575-.377.959-.795 1.048.487.075.884.569.884 1.124 0 .72-.479 1.234-1.322 1.234h-2.2zm.685-2.632h1.33c.459 0 .712-.288.712-.665 0-.377-.253-.671-.712-.671h-1.33v1.336zm0 2.029h1.364c.48 0 .767-.275.767-.72 0-.377-.26-.706-.767-.706h-1.364v1.425zm5.579.603v-.364c-.261.288-.638.446-1.083.446-.548 0-1.152-.37-1.152-1.097 0-.754.597-1.083 1.152-1.083.445 0 .829.145 1.083.44v-.55c0-.41-.336-.657-.809-.657-.377 0-.699.144-.994.439l-.267-.425a1.863 1.863 0 011.357-.542c.719 0 1.329.316 1.329 1.158v2.235h-.616zm0-.727v-.562c-.185-.247-.508-.377-.85-.377-.446 0-.761.268-.761.658s.315.658.761.658c.342 0 .665-.13.85-.377zm3.7.727v-2.118c0-.548-.281-.727-.706-.727-.383 0-.733.234-.911.48v2.365h-.617v-3.31h.617v.465a1.578 1.578 0 011.172-.548c.699 0 1.062.37 1.062 1.07v2.323h-.617zm1.254-1.659c0-.994.686-1.734 1.686-1.734.624 0 1.001.26 1.241.583l-.411.377a.933.933 0 00-.802-.411c-.651 0-1.069.5-1.069 1.185 0 .686.418 1.193 1.069 1.193a.94.94 0 00.802-.412l.411.377c-.24.322-.617.583-1.241.583-1 0-1.686-.747-1.686-1.74zm4.935 1.74c-1.028 0-1.672-.78-1.672-1.74 0-.952.644-1.734 1.672-1.734 1.035 0 1.672.782 1.672 1.734 0 .96-.637 1.74-1.672 1.74zm0-.547c.664 0 1.028-.562 1.028-1.193 0-.623-.364-1.185-1.028-1.185-.658 0-1.028.561-1.028 1.185 0 .63.37 1.193 1.028 1.193z" fill="#0E2381"/></g><defs><clipPath id="clip0"><path fill="#fff" d="M0 0h223v160H0z"/></clipPath></defs></svg>